<svg width="368" height="368" viewBox="0 0 368 368" fill="none" xmlns="http://www.w3.org/2000/svg">
<rect width="368" height="368" fill="#00A58E"/>
<path d="M292.289 107.089V179.815C292.289 195.881 279.036 208.904 262.691 208.904H223.298V174.896C223.298 158.831 210.045 145.807 193.7 145.807H159.108V107.089C159.108 91.0231 172.361 78 188.706 78H262.691C279.036 78 292.289 91.0231 292.289 107.089ZM105.684 290H179.9C196.293 290 209.584 276.977 209.584 260.911V222.183H174.887C158.494 222.183 145.202 209.16 145.202 193.094V159.086H105.684C89.2912 159.086 76 172.119 76 188.185V260.911C76 276.977 89.2912 290 105.684 290ZM186.315 159.086H159.108V185.938C159.108 198.63 169.528 208.914 182.387 208.914H209.594V182.062C209.594 169.37 199.174 159.086 186.315 159.086ZM186.315 159.086H159.108V185.938C159.108 198.63 169.528 208.914 182.387 208.914H209.594V182.062C209.594 169.37 199.174 159.086 186.315 159.086ZM110.563 78C91.4712 78 76 93.2695 76 112.112C76 130.955 91.4712 146.224 110.563 146.224C129.655 146.224 145.126 130.955 145.126 112.112C145.126 93.2695 129.645 78 110.563 78Z" fill="white"/>
</svg>
